<?xml version="1.0" standalone="no"?>
<!DOCTYPE svg PUBLIC "-//W3C//DTD SVG 20010904//EN"
 "http://www.w3.org/TR/2001/REC-SVG-20010904/DTD/svg10.dtd">
<svg version="1.0" xmlns="http://www.w3.org/2000/svg"
 width="300.000000pt" height="300.000000pt" viewBox="0 0 300.000000 300.000000"
 preserveAspectRatio="xMidYMid meet">
<metadata>
Created by potrace 1.11, written by Peter Selinger 2001-2013
</metadata>
<g transform="translate(0.000000,300.000000) scale(0.100000,-0.100000)"
fill="#000000" stroke="none">
<path d="M1834 2602 c-11 -9 -70 -73 -130 -142 -120 -138 -405 -428 -444 -453
-14 -8 -47 -18 -75 -22 -143 -18 -248 -34 -303 -46 -23 -5 -59 -12 -79 -15
-42 -7 -213 -65 -353 -119 -52 -21 -159 -55 -238 -75 -79 -21 -154 -45 -167
-54 -44 -29 -44 -104 -1 -255 26 -91 32 -118 46 -244 5 -43 12 -82 16 -88 3
-6 6 -39 6 -74 -1 -72 12 -91 79 -126 75 -38 146 -88 173 -121 48 -58 52 -63
96 -124 56 -76 91 -114 106 -114 18 0 55 40 136 149 63 83 72 91 81 75 17 -29
11 -128 -12 -234 -12 -52 -21 -119 -21 -149 0 -101 62 -181 139 -181 154 0
428 343 680 850 53 107 72 135 130 191 80 76 184 148 256 175 75 29 185 25
255 -7 65 -31 97 -61 153 -146 66 -101 146 -120 190 -45 25 43 17 75 -44 164
-51 76 -51 88 2 88 14 0 65 -25 114 -57 99 -62 149 -73 197 -41 84 55 3 183
-142 224 -33 9 -59 18 -57 20 1 2 72 12 157 23 143 18 157 22 177 46 33 38 31
96 -5 136 -48 53 -167 69 -260 35 -20 -8 -72 -27 -114 -42 -42 -16 -80 -26
-83 -22 -4 4 9 52 28 108 39 112 41 166 9 210 -22 28 -82 39 -99 18 -6 -7 -24
-47 -40 -89 -17 -42 -52 -109 -78 -149 -124 -186 -282 -289 -497 -324 -35 -6
-39 0 -22 39 42 101 115 414 131 563 21 193 -1 416 -45 450 -20 15 -23 15 -48
-6z"/>
</g>
</svg>
